<?xml version="1.0" encoding="UTF-8" standalone="no"?>
<!-- Creator: CorelDRAW -->

<svg
   xml:space="preserve"
   width="12.124929in"
   height="6.9924941in"
   version="1.1"
   style="clip-rule:evenodd;fill-rule:evenodd;image-rendering:optimizeQuality;shape-rendering:geometricPrecision;text-rendering:geometricPrecision"
   viewBox="0 0 12124.929 6992.4941"
   id="svg13"
   sodipodi:docname="logo livin - Koleksilogo.com.svg"
   inkscape:version="1.3.2 (091e20e, 2023-11-25, custom)"
   xmlns:inkscape="http://www.inkscape.org/namespaces/inkscape"
   xmlns:sodipodi="http://sodipodi.sourceforge.net/DTD/sodipodi-0.dtd"
   xmlns="http://www.w3.org/2000/svg"
   xmlns:svg="http://www.w3.org/2000/svg"><sodipodi:namedview
   id="namedview13"
   pagecolor="#ffffff"
   bordercolor="#000000"
   borderopacity="0.25"
   inkscape:showpageshadow="2"
   inkscape:pageopacity="0.0"
   inkscape:pagecheckerboard="0"
   inkscape:deskcolor="#d1d1d1"
   inkscape:document-units="in"
   inkscape:zoom="0.80208333"
   inkscape:cx="556.05195"
   inkscape:cy="337.24675"
   inkscape:window-width="1920"
   inkscape:window-height="1094"
   inkscape:window-x="-11"
   inkscape:window-y="-11"
   inkscape:window-maximized="1"
   inkscape:current-layer="Layer_x0020_1" />
 <defs
   id="defs1">
  <style
   type="text/css"
   id="style1">
   <![CDATA[
    .fil1 {fill:#FCB72E;fill-rule:nonzero}
    .fil0 {fill:#6FB4E3;fill-rule:nonzero}
    .fil2 {fill:#393669;fill-rule:nonzero}
   ]]>
  </style>
 </defs>
 <g
   id="Layer_x0020_1"
   inkscape:label="Layer 1"
   inkscape:groupmode="layer"
   transform="translate(1551.9295,-1986.5061)">
  <metadata
   id="CorelCorpID_0Corel-Layer" />
  <g
   id="logo_x0020_livin.cdr">
   <g
   id="g2">
    <g
   id="g1">
     <path
   class="fil0"
   d="m 9398,5403 c -42,-26 -149,-67 -223,161 -73,229 -224,635 -316,805 -92,170 -216,249 -269,86 -52,-164 -96,-662 -115,-1059 -19,-396 28,-754 -352,-836 -381,-82 -604,138 -692,292 -88,154 -497,928 -497,928 0,0 -19,-343 25,-758 44,-415 63,-607 -6,-707 -69,-101 -428,-280 -538,-98 -110,182 -292,726 -408,1025 -117,299 -393,1066 -569,1066 -177,0 -111,-905 -35,-1119 75,-214 145,-368 145,-566 0,-198 -92,-340 -340,-387 -249,-47 -381,151 -465,434 -85,283 -148,626 -158,965 0,0 -210,378 -701,340 0,0 113,-368 179,-594 66,-227 180,-730 -85,-890 -264,-161 -635,-148 -820,107 -186,254 -233,594 -208,839 25,245 173,547 308,686 0,0 -192,481 -270,685 -79,205 -129,293 -211,293 -82,0 -157,-114 -239,-381 -82,-267 -170,-572 -207,-975 -38,-402 -51,-883 -158,-1063 -107,-179 -236,-198 -339,-198 -103,0 -305,110 -362,334 -56,223 -183,780 -330,1125 -147,346 -302,525 -350,244 -48,-281 20,-803 51,-989 32,-185 217,-454 215,-542 -2,-88 -98,-354 -356,-352 -258,2 -321,197 -382,371 -61,174 -191,596 -294,1051 -104,456 -188,842 -391,842 -126,0 -237,-159 -300,-488 -63,-329 -124,-1019 -124,-2055 0,0 243,-324 424,-934 180,-610 155,-1160 -191,-1100 -346,59 -610,588 -755,1192 -144,603 -337,2448 -186,3161 77,364 303,810 793,851 505,42 734,-348 849,-686 0,0 347,669 645,669 297,0 506,-540 619,-1260 0,0 188,1134 360,1466 172,331 385,591 855,591 470,0 667,-336 772,-650 104,-314 343,-952 343,-952 0,0 384,61 868,-291 0,0 16,641 280,865 264,223 494,193 655,13 162,-180 399,-671 452,-806 0,0 -28,458 14,615 42,158 300,397 606,397 306,0 390,-218 473,-418 84,-199 530,-1025 530,-1025 0,0 63,676 144,994 82,318 315,701 686,701 371,0 704,-905 871,-1396 167,-490 121,-594 80,-619 z M -672,2887 v 0 c 66,-362 295,-519 257,-189 -37,330 -191,698 -317,950 0,0 -6,-399 60,-761 z m 4084,2736 v 0 c -104,-158 -117,-344 -48,-441 69,-96 176,-62 191,57 15,120 -143,384 -143,384 z"
   id="path1" />
    </g>
   </g>
   <g
   id="g3">
    <path
   class="fil0"
   d="m 683,2877 c -33,80 50,268 258,419 207,151 418,59 512,-38 95,-98 220,-321 0,-469 -220,-147 -437,2 -515,55 -79,54 -206,-84 -255,33 z"
   id="path2" />
   </g>
   <g
   id="g4">
    <path
   class="fil0"
   d="m 5211,2877 c -33,80 50,268 258,419 207,151 418,59 512,-38 95,-98 221,-321 0,-469 -220,-147 -437,2 -515,55 -79,54 -206,-84 -255,33 z"
   id="path3" />
   </g>
   <g
   id="g5">
    <path
   class="fil1"
   d="m 9932,4009 c 7,87 -114,148 -89,218 25,69 101,232 327,72 226,-161 403,-381 403,-711 0,-330 -221,-453 -367,-453 -146,0 -350,239 -350,532 0,217 71,271 76,342 z"
   id="path4" />
   </g>
   <g
   id="g13">
    <path
   class="fil0"
   d="m 4009,8710 c 3,-40 5,-100 5,-152 v -711 h 106 v 370 h 2 c 38,-66 106,-109 201,-109 146,0 249,122 248,301 0,210 -133,315 -264,315 -85,0 -153,-33 -197,-111 h -4 l -4,97 z m 111,-236 v 0 c 0,14 2,27 5,39 20,74 82,125 160,125 112,0 179,-91 179,-226 0,-118 -61,-219 -175,-219 -73,0 -141,50 -163,132 -3,12 -6,27 -6,44 z"
   id="path5" />
    <path
   class="fil0"
   d="m 4736,8122 129,347 c 13,39 28,86 38,121 h 2 c 11,-35 23,-80 38,-123 l 117,-345 h 113 l -161,419 c -76,202 -129,305 -202,369 -52,46 -104,64 -131,69 l -27,-90 c 27,-9 62,-26 94,-52 29,-23 66,-65 90,-120 5,-10 8,-19 8,-25 0,-6 -2,-15 -7,-28 l -218,-542 z"
   id="path6" />
    <path
   class="fil2"
   d="m 5519,8294 c 0,-68 -1,-125 -5,-176 h 129 l 6,88 h 4 c 29,-47 83,-101 182,-101 78,0 139,43 164,109 h 3 c 21,-33 45,-57 73,-74 33,-23 70,-35 119,-35 98,0 198,67 198,256 v 349 h -146 v -327 c 0,-98 -34,-157 -106,-157 -51,0 -88,37 -104,79 -4,15 -7,33 -7,50 v 355 h -146 v -343 c 0,-82 -33,-141 -102,-141 -56,0 -94,44 -107,85 -7,15 -9,32 -9,49 v 350 h -146 z"
   id="path7" />
    <path
   class="fil2"
   d="m 6883,8710 -9,-65 h -4 c -37,46 -99,79 -175,79 -119,0 -186,-87 -186,-177 0,-149 132,-225 351,-223 v -10 c 0,-39 -16,-104 -120,-104 -59,0 -119,19 -159,44 l -30,-97 c 44,-27 121,-52 214,-52 190,0 245,120 245,249 v 214 c 0,53 2,106 8,142 z m -19,-289 v 0 c -106,-3 -207,20 -207,110 0,59 38,86 85,86 60,0 104,-39 117,-82 4,-11 5,-23 5,-33 z"
   id="path8" />
    <path
   class="fil2"
   d="m 7168,8294 c 0,-68 -1,-125 -5,-176 h 131 l 7,89 h 4 c 26,-46 90,-102 189,-102 103,0 210,67 210,254 v 351 h -150 v -334 c 0,-85 -31,-150 -113,-150 -59,0 -101,43 -116,88 -5,13 -7,31 -7,48 v 348 h -150 z"
   id="path9" />
    <path
   class="fil2"
   d="m 8409,7847 v 697 c 0,60 2,126 5,166 h -134 l -6,-93 h -2 c -36,65 -107,107 -194,107 -141,0 -253,-121 -253,-303 -1,-198 123,-316 266,-316 81,0 139,34 166,78 h 3 v -336 z m -149,518 v 0 c 0,-12 -2,-27 -4,-39 -14,-58 -61,-106 -129,-106 -96,0 -150,85 -150,196 0,108 54,187 149,187 61,0 114,-41 129,-106 3,-13 5,-28 5,-43 z"
   id="path10" />
    <path
   class="fil2"
   d="m 8729,7953 c 0,45 -33,80 -85,80 -50,0 -83,-35 -83,-80 0,-46 34,-82 84,-82 51,0 83,36 84,82 z m -159,757 v 0 -592 h 150 v 592 z"
   id="path11" />
    <path
   class="fil2"
   d="m 8881,8309 c 0,-80 -1,-137 -5,-191 h 130 l 5,113 h 5 c 29,-84 98,-126 161,-126 15,0 24,1 36,3 v 141 c -12,-2 -26,-4 -44,-4 -72,0 -120,46 -134,113 -2,13 -5,29 -5,46 v 306 h -149 z"
   id="path12" />
    <path
   class="fil2"
   d="m 9473,7953 c 0,45 -33,80 -85,80 -50,0 -83,-35 -83,-80 0,-46 34,-82 84,-82 51,0 83,36 84,82 z m -159,757 v 0 -592 h 150 v 592 z"
   id="path13" />
   </g>
  </g>
 </g>
</svg>
